<svg width="32" height="32" viewBox="0 0 32 32" fill="none" xmlns="http://www.w3.org/2000/svg">
  <circle cx="16" cy="16" r="15" fill="#50C878" stroke="white" stroke-width="2"/>
  <path fill-rule="evenodd" clip-rule="evenodd" d="M16 8.625C11.9268 8.625 8.625 11.9268 8.625 16C8.625 20.0732 11.9268 23.375 16 23.375C19.96 23.375 23.1939 20.2545 23.3642 16.3279C23.3851 15.8451 23.0107 15.4368 22.5279 15.4158C22.0451 15.3949 21.6368 15.7693 21.6158 16.2521C21.486 19.2455 19.02 21.625 16 21.625C12.8932 21.625 10.375 19.1068 10.375 16C10.375 12.8932 12.8932 10.375 16 10.375C16.9387 10.375 17.8183 10.6007 18.5814 11.0037C19.0087 11.2294 19.5381 11.0659 19.7637 10.6386C19.9894 10.2113 19.8259 9.68193 19.3986 9.45626C18.3817 8.91926 17.2213 8.625 16 8.625ZM22.4682 12.2011C22.7022 12.5984 22.5685 13.1004 22.1973 13.374L16.5483 17.5377C16.2177 17.7813 15.7718 17.7981 15.4238 17.58L13.5729 16.4198C13.3068 16.2529 13.1452 15.9609 13.1452 15.6469C13.1452 14.9298 13.9344 14.4931 14.5419 14.874L15.8563 15.6979C15.9433 15.7524 16.0547 15.7482 16.1374 15.6873L21.1675 11.9799C21.5944 11.6653 22.1992 11.7442 22.4682 12.2011Z" fill="white"/>
</svg>
